# xmcd CD database file
#
# Track frame offsets:
#	150
#	16567
#	41458
#	62636
#	89595
#	115268
#	136762
#	153039
#	178568
#
# Disc length: 2923 seconds
#
# Revision: 0
# Processed by: cddbd v1.5.2PL0 Copyright (c) Steve Scherf et al.
# Submitted via: CDex 1.70beta2
#
DISCID=610b6909
DTITLE=Ana Rita Simonka - Mantra
DYEAR=1900
DGENRE=New Age
TTITLE0=Guru Mantra
TTITLE1=Sat Guru Omkara
TTITLE2=Jay Ganesh
TTITLE3=Hari Om
TTITLE4=Govinda Gopala
TTITLE5=Pessoa Transcendente 1
TTITLE6=Ganges Godess
TTITLE7=Pessoa Transcendente 2
TTITLE8=Meditações
EXTD=
EXTT0=
EXTT1=
EXTT2=
EXTT3=
EXTT4=
EXTT5=
EXTT6=
EXTT7=
EXTT8=
PLAYORDER=
